<svg viewBox="0 0 14 10" xmlns="http://www.w3.org/2000/svg" fill-rule="evenodd" clip-rule="evenodd" stroke-linejoin="round" stroke-miterlimit="2"><path d="M4.982,7.6l8.141,-7.525c0.114,-0.106 0.292,-0.099 0.398,0.015l0.381,0.413c0.106,0.114 0.099,0.292 -0.015,0.398l-8.338,7.706c-0.006,0.007 -0.013,0.014 -0.02,0.02l-0.061,0.056l-0.281,0.259c-0.014,0.013 -0.029,0.024 -0.045,0.034l-0.031,0.028c-0.115,0.104 -0.293,0.094 -0.397,-0.021l-4.642,-5.155c-0.104,-0.115 -0.094,-0.293 0.021,-0.397l0.418,-0.377c0.115,-0.103 0.293,-0.094 0.397,0.021l4.074,4.525Z" /></svg>