<svg viewBox="0 0 7 12" xmlns="http://www.w3.org/2000/svg" xml:space="preserve" fill-rule="evenodd" clip-rule="evenodd" stroke-linejoin="round" stroke-miterlimit="2"><path d="m4.344 5.99961-3.997-4.139c-.192-.198-.186-.515.013-.707.115-.112.244-.236.36-.348.198-.191.515-.186.707.013.967 1.002 3.684 3.815 4.652 4.817.064.067.106.147.126.231.05.167.011.355-.119.49-.969 1.003-3.691 3.822-4.66 4.825-.192.199-.508.204-.707.012-.116-.112-.244-.236-.359-.347-.199-.192-.205-.509-.013-.707l3.997-4.14Z"/></svg>