<svg viewBox="0 0 11 12" xmlns="http://www.w3.org/2000/svg" fill-rule="evenodd" clip-rule="evenodd" stroke-linejoin="round" stroke-miterlimit="2"><path d="M0.289,11.002c-0.077,-0 -0.147,-0.032 -0.198,-0.082l-0.001,-0.001c-0.051,-0.051 -0.082,-0.121 -0.082,-0.198l-0,-3.388c-0.003,-0.015 -0.004,-0.031 -0.004,-0.047l-0,-0.562c-0,-0.156 0.126,-0.282 0.281,-0.282l3.997,0c0.077,0 0.147,0.032 0.198,0.082l0.001,0.001c0.051,0.051 0.082,0.121 0.082,0.199l0,3.387c0.003,0.016 0.004,0.031 0.004,0.047l0,0.563c0,0.155 -0.126,0.281 -0.281,0.281l-3.997,-0Zm6.426,-0c-0.077,-0 -0.148,-0.032 -0.198,-0.082l-0.001,-0.001c-0.051,-0.051 -0.082,-0.121 -0.082,-0.198l-0,-3.388c-0.003,-0.015 -0.004,-0.031 -0.004,-0.047l-0,-0.562c-0,-0.156 0.126,-0.282 0.281,-0.282l3.997,0c0.077,0 0.147,0.032 0.198,0.082l0.001,0.001c0.051,0.051 0.082,0.121 0.082,0.199l0,3.387c0.003,0.016 0.004,0.031 0.004,0.047l-0,0.563c-0,0.155 -0.126,0.281 -0.281,0.281l-3.997,-0Zm-5.582,-3.435l-0,2.31l2.305,-0l0,-2.31l-2.305,0Zm6.426,0l-0,2.31l2.305,-0l0,-2.31l-2.305,0Zm-7.274,-3.008c-0.077,0 -0.147,-0.031 -0.198,-0.082l-0.001,-0.001c-0.051,-0.05 -0.082,-0.121 -0.082,-0.198l-0,-3.388c-0.003,-0.015 -0.004,-0.03 -0.004,-0.046l-0,-0.563c-0,-0.155 0.126,-0.281 0.281,-0.281l3.997,-0c0.077,-0 0.148,0.031 0.198,0.082l0.001,0.001c0.051,0.051 0.082,0.121 0.082,0.198l0,3.388c0.003,0.015 0.004,0.031 0.004,0.047l0,0.562c0,0.155 -0.126,0.281 -0.281,0.281l-3.997,0Zm6.43,0c-0.077,0 -0.148,-0.031 -0.198,-0.082l-0.001,-0.001c-0.051,-0.05 -0.082,-0.121 -0.082,-0.198l-0,-3.388c-0.003,-0.015 -0.004,-0.03 -0.004,-0.046l-0,-0.563c-0,-0.155 0.126,-0.281 0.281,-0.281l3.997,-0c0.077,-0 0.147,0.031 0.198,0.082l0.001,0.001c0.051,0.051 0.082,0.121 0.082,0.198l0,3.388c0.003,0.015 0.004,0.031 0.004,0.047l-0,0.562c-0,0.155 -0.126,0.281 -0.281,0.281l-3.997,0Zm-5.586,-3.434l-0,2.309l2.305,0l0,-2.309l-2.305,-0Zm6.43,-0l-0,2.309l2.305,0l0,-2.309l-2.305,-0Z"/></svg>