<svg viewBox="0 0 15 19" xmlns="http://www.w3.org/2000/svg" fill-rule="evenodd" clip-rule="evenodd" stroke-linejoin="round" stroke-miterlimit="2"><path d="M5027.45,1087.27C5027.5,1087.25 5027.56,1087.23 5027.63,1087.23C5027.76,1087.23 5027.89,1087.28 5027.98,1087.37C5029.24,1088.59 5033.44,1092.66 5034.69,1093.87C5034.89,1094.07 5034.9,1094.38 5034.71,1094.58C5034.44,1094.85 5034.08,1095.23 5033.82,1095.5C5033.73,1095.6 5033.6,1095.65 5033.47,1095.66C5033.33,1095.66 5033.2,1095.61 5033.11,1095.52L5028.76,1091.3L5028.76,1105.46C5028.76,1105.74 5028.53,1105.96 5028.26,1105.96C5027.88,1105.96 5027.36,1105.96 5026.98,1105.96C5026.7,1105.96 5026.48,1105.74 5026.48,1105.46L5026.48,1091.32L5022.15,1095.52C5022.05,1095.61 5021.92,1095.66 5021.79,1095.66C5021.65,1095.65 5021.53,1095.6 5021.44,1095.5C5021.17,1095.23 5020.81,1094.85 5020.55,1094.58C5020.36,1094.38 5020.36,1094.07 5020.56,1093.87C5021.81,1092.66 5026,1088.6 5027.26,1087.38C5027.31,1087.33 5027.38,1087.29 5027.45,1087.27Z" transform="matrix(1,0,0,1,-5020.41,-1087.23) matrix(6.17718e-17,-1.00881,3.74165,2.2911e-16,3506.8,1360.89) matrix(6.06976e-17,0.267262,-0.991267,1.63651e-17,1349.01,-937.234)"/></svg>