<svg viewBox="0 0 18 13" xmlns="http://www.w3.org/2000/svg" xml:space="preserve" fill-rule="evenodd" clip-rule="evenodd" stroke-linejoin="round" stroke-miterlimit="2"><path d="M6031.57,636.548L6040.17,626.858C6040.35,626.651 6040.67,626.632 6040.87,626.816L6041.62,627.48C6041.83,627.663 6041.85,627.979 6041.66,628.185L6032.07,638.996C6031.88,639.203 6031.57,639.221 6031.36,639.038L6031.19,638.889C6031.16,638.87 6031.13,638.848 6031.1,638.821L6024.84,633.156C6024.64,632.971 6024.62,632.654 6024.81,632.449L6025.48,631.708C6025.66,631.504 6025.98,631.488 6026.18,631.673L6031.57,636.548Z" transform="matrix(1,0,0,1,-6024.68,-626.69) matrix(0.839117,0,0,0.75321,5662.31,790.161) matrix(1.19173,0,0,1.32765,-6747.94,-1049.06)"/></svg>