<svg viewBox="0 0 19 11" xmlns="http://www.w3.org/2000/svg" fill-rule="evenodd" clip-rule="evenodd" stroke-linejoin="round" stroke-miterlimit="2"><path d="M3134.5,1685.23C3134.31,1685.32 3134.09,1685.29 3133.93,1685.14C3132.45,1683.71 3126.85,1678.31 3125.38,1676.88C3125.18,1676.69 3125.17,1676.37 3125.36,1676.17C3125.68,1675.84 3126.15,1675.35 3126.47,1675.02C3126.67,1674.82 3126.98,1674.82 3127.18,1675.01L3134.28,1681.87L3141.39,1675.01C3141.48,1674.92 3141.61,1674.87 3141.74,1674.87C3141.87,1674.87 3142,1674.93 3142.09,1675.02C3142.41,1675.35 3142.88,1675.84 3143.2,1676.17C3143.3,1676.27 3143.35,1676.4 3143.34,1676.53C3143.34,1676.66 3143.29,1676.79 3143.19,1676.88C3141.71,1678.31 3136.13,1683.7 3134.65,1685.13C3134.61,1685.17 3134.55,1685.2 3134.5,1685.23Z" fill="#003567" transform="matrix(1,0,0,1,-3125.22,-1674.87) matrix(7.68564e-17,1.25516,-4.67044,2.85982e-16,5032.62,1344.74) matrix(4.87845e-17,-0.214113,0.796711,1.31106e-17,-1071.37,1077.55)"/></svg>