<svg viewBox="0 0 7 12" xmlns="http://www.w3.org/2000/svg" fill-rule="evenodd" clip-rule="evenodd" stroke-linejoin="round" stroke-miterlimit="2"><g transform="matrix(1,0,0,1,-4304.21,-242.512) matrix(1,0,0,3.35782,3655.13,76.6079) matrix(0.75047,0,0,0.831638,451.78,-286.968)"><path d="M472.249,1992.01C472.249,1989 467.484,1986.55 461.606,1986.55C431.963,1986.55 348.695,1986.55 319.052,1986.55C313.175,1986.55 308.409,1989 308.409,1992.01C308.409,1993.77 308.409,1995.72 308.409,1997.47C308.409,2000.49 313.175,2002.94 319.052,2002.94C355.381,2002.94 472.249,2002.94 472.249,2002.94C472.249,2002.94 472.249,1996.78 472.249,1992.01Z" transform="matrix(0.0434846,0.0121015,-0.0877551,0.0227746,425.259,355.499)"/><path d="M472.249,1992.01C472.249,1989 467.491,1986.55 461.621,1986.55C431.986,1986.55 348.673,1986.55 319.038,1986.55C313.168,1986.55 308.409,1989 308.409,1992.01C308.409,1993.77 308.409,1995.72 308.409,1997.47C308.409,2000.49 313.168,2002.94 319.038,2002.94C355.35,2002.94 472.249,2002.94 472.249,2002.94C472.249,2002.94 472.249,1996.78 472.249,1992.01Z" transform="matrix(0.0435446,-0.0121182,-0.0877551,-0.0227746,425.24,457.423)"/></g></svg>