<svg viewBox="0 0 19 11" xmlns="http://www.w3.org/2000/svg" fill-rule="evenodd" clip-rule="evenodd" stroke-linejoin="round" stroke-miterlimit="2"><path d="M1357.18,2461.27C1357.37,2461.18 1357.59,2461.2 1357.75,2461.36C1359.23,2462.78 1364.83,2468.19 1366.3,2469.62C1366.5,2469.81 1366.51,2470.12 1366.32,2470.32C1366,2470.65 1365.53,2471.14 1365.2,2471.47C1365.01,2471.67 1364.7,2471.68 1364.5,2471.49L1357.4,2464.63L1350.29,2471.49C1350.2,2471.58 1350.07,2471.63 1349.94,2471.63C1349.81,2471.62 1349.68,2471.57 1349.59,2471.47C1349.27,2471.14 1348.8,2470.65 1348.48,2470.32C1348.38,2470.23 1348.33,2470.1 1348.34,2469.97C1348.34,2469.83 1348.39,2469.71 1348.49,2469.62C1349.96,2468.19 1355.55,2462.79 1357.03,2461.37C1357.07,2461.33 1357.12,2461.29 1357.18,2461.27Z" fill="#003567" transform="matrix(1,0,0,1,-1348.34,-2461.22) matrix(7.68564e-17,-1.25516,4.67044,2.85982e-16,-540.945,2801.75) matrix(4.87845e-17,0.214113,-0.796711,1.31106e-17,2232.19,115.823)"/></svg>