<svg viewBox="0 0 11 11" xmlns="http://www.w3.org/2000/svg" fill-rule="evenodd" clip-rule="evenodd" stroke-linejoin="round" stroke-miterlimit="2"><path d="M5.24,4.445l4.363,-4.363c0.109,-0.109 0.288,-0.109 0.397,0l0.398,0.398c0.11,0.11 0.11,0.288 0,0.398l-4.362,4.362l4.362,4.363c0.11,0.109 0.11,0.288 0,0.397l-0.398,0.398c-0.109,0.11 -0.288,0.11 -0.397,0l-4.363,-4.362l-4.362,4.362c-0.11,0.11 -0.288,0.11 -0.398,0l-0.398,-0.398c-0.109,-0.109 -0.109,-0.288 0,-0.397l4.363,-4.363l-4.363,-4.362c-0.109,-0.11 -0.109,-0.288 0,-0.398l0.398,-0.398c0.11,-0.109 0.288,-0.109 0.398,0l4.362,4.363Z"/></svg>