<svg viewBox="0 0 27 22" xmlns="http://www.w3.org/2000/svg" fill-rule="evenodd" clip-rule="evenodd" stroke-linejoin="round" stroke-miterlimit="2"><g transform="matrix(1,0,0,1,-5015.99,-1022.64)"><path d="M1533.92,958.412C1533.94,958.44 1533.96,958.461 1533.99,958.479C1534.02,958.507 1534.08,958.532 1534.22,958.532C1534.36,958.532 1534.63,958.49 1535.08,958.244C1535.7,957.912 1536.7,957.184 1538.27,955.614C1538.27,955.614 1538.27,955.614 1538.27,955.614C1540.28,953.604 1540.91,952.516 1541.1,951.972C1541.24,951.552 1541.15,951.379 1541.14,951.349C1541.13,951.336 1541.13,951.326 1541.12,951.319L1540.92,951.085C1540.26,950.434 1539.72,949.833 1539.63,949.056C1539.54,948.272 1539.9,947.326 1540.97,945.989C1540.97,945.989 1540.97,945.989 1540.97,945.989C1541.78,944.988 1542.57,944.488 1543.42,944.488C1544.57,944.488 1545.42,945.415 1546.11,946.147L1546.47,946.52C1547.15,947.193 1547.28,948.446 1546.91,950.018C1546.34,952.479 1544.52,955.691 1541.45,958.762C1537.28,962.928 1533.31,964.423 1531.15,964.423C1531.14,964.423 1531.14,964.423 1531.13,964.424C1530.43,964.471 1529.74,964.241 1529.21,963.784L1529.2,963.779C1529.09,963.66 1528.96,963.546 1528.84,963.421C1528.83,963.419 1528.83,963.418 1528.83,963.417C1528.08,962.709 1527.12,961.851 1527.18,960.641C1527.18,960.638 1527.18,960.635 1527.18,960.632C1527.18,959.818 1527.71,959.056 1528.64,958.284C1529.78,957.363 1530.68,956.924 1531.48,956.924C1532.48,956.924 1533.14,957.593 1533.74,958.228L1533.88,958.291C1533.88,958.291 1533.74,958.232 1533.74,958.232L1533.92,958.412ZM1532.87,959.12L1533.08,959.331C1533.09,959.349 1533.11,959.363 1533.13,959.372C1533.11,959.363 1533.1,959.352 1533.08,959.339C1533.39,959.645 1533.82,959.812 1534.25,959.803C1534.94,959.802 1536.22,959.479 1539.2,956.51C1540.42,955.294 1541.68,953.909 1542.22,952.699C1542.61,951.819 1542.62,951.025 1542.06,950.423L1541.83,950.212C1541.58,949.957 1541.35,949.736 1541.18,949.515C1541.04,949.32 1540.94,949.127 1540.92,948.905C1540.88,948.416 1541.19,947.814 1541.99,946.815C1541.99,946.813 1542,946.811 1542,946.808C1542.5,946.116 1542.99,945.759 1543.42,945.759C1543.64,945.759 1543.86,945.862 1544.09,946.013C1544.47,946.268 1544.84,946.661 1545.18,947.023L1545.54,947.397C1545.64,947.496 1545.71,947.641 1545.75,947.825C1545.83,948.142 1545.84,948.562 1545.76,949.064C1545.47,951.115 1543.89,954.466 1540.52,957.841C1540.52,957.841 1540.52,957.842 1540.52,957.842C1536.39,962.027 1532.67,963.152 1531.15,963.152C1531.14,963.152 1531.13,963.153 1531.13,963.153C1530.76,963.186 1530.39,963.086 1530.1,962.871C1530.09,962.868 1529.71,962.502 1529.71,962.502C1529.71,962.502 1529.71,962.502 1529.71,962.502C1529.34,962.15 1528.94,961.778 1528.68,961.39C1528.54,961.168 1528.44,960.943 1528.44,960.712C1528.57,960.12 1528.93,959.608 1529.45,959.29C1529.45,959.286 1529.46,959.281 1529.47,959.276C1530.35,958.572 1531.03,958.195 1531.52,958.195C1531.73,958.195 1531.92,958.278 1532.11,958.421C1532.34,958.586 1532.58,958.825 1532.87,959.12ZM1533.34,959.302C1533.29,959.359 1533.22,959.396 1533.22,959.396C1533.28,959.396 1533.34,959.37 1533.38,959.326L1533.34,959.302Z" transform="matrix(1.25,0,0,5.23929,3511.78,201.921) matrix(0.8,0,0,0.190866,-13.0027,-23.2782)"/><path d="M5030.21,1033.13C5029.15,1032.14 5028.01,1031.1 5027.09,1030.31C5027.05,1030.28 5026.99,1030.28 5026.95,1030.32L5026.42,1030.8C5026.08,1031.11 5025.69,1031.26 5025.28,1031.26C5024.87,1031.26 5024.48,1031.11 5024.15,1030.8L5023.61,1030.32C5023.57,1030.28 5023.51,1030.28 5023.48,1030.31C5021.7,1031.84 5019.08,1034.31 5017.84,1035.49C5017.82,1035.52 5017.81,1035.56 5017.82,1035.6C5017.84,1035.63 5017.87,1035.66 5017.91,1035.66L5024.11,1035.66C5023.65,1035.87 5023.15,1036.19 5022.6,1036.62L5017.62,1036.62C5016.72,1036.62 5015.99,1035.89 5015.99,1034.99C5015.99,1034.99 5015.99,1024.27 5015.99,1024.27C5015.99,1023.37 5016.72,1022.64 5017.62,1022.64L5032.94,1022.64C5033.84,1022.64 5034.57,1023.37 5034.57,1024.27L5034.67,1024.37C5034.67,1024.37 5034.57,1024.27 5034.57,1024.27L5034.57,1024.7C5034.12,1025.28 5033.81,1025.79 5033.61,1026.25C5033.61,1026.25 5033.61,1024.47 5033.61,1024.47C5033.61,1024.43 5033.58,1024.4 5033.55,1024.38C5033.51,1024.37 5033.47,1024.37 5033.44,1024.4C5032.25,1025.49 5029.65,1027.87 5027.82,1029.53C5027.8,1029.55 5027.79,1029.57 5027.79,1029.6C5027.79,1029.63 5027.81,1029.66 5027.83,1029.68C5028.75,1030.47 5029.87,1031.5 5030.91,1032.46L5030.21,1033.13ZM5017.12,1024.4C5017.1,1024.37 5017.05,1024.37 5017.02,1024.38C5016.98,1024.4 5016.96,1024.43 5016.96,1024.47L5016.96,1034.77C5016.96,1034.81 5016.98,1034.84 5017.02,1034.86C5017.05,1034.87 5017.1,1034.87 5017.12,1034.84C5018.32,1033.7 5020.92,1031.25 5022.74,1029.67C5022.76,1029.66 5022.77,1029.63 5022.77,1029.6C5022.77,1029.57 5022.76,1029.55 5022.74,1029.53C5020.92,1027.87 5018.31,1025.49 5017.12,1024.4ZM5032.69,1023.78C5032.72,1023.75 5032.73,1023.71 5032.71,1023.67C5032.7,1023.63 5032.66,1023.6 5032.62,1023.6L5017.94,1023.6C5017.9,1023.6 5017.86,1023.63 5017.85,1023.67C5017.83,1023.71 5017.85,1023.75 5017.88,1023.78C5019.49,1025.26 5023.37,1028.8 5024.79,1030.09C5024.79,1030.09 5024.79,1030.09 5024.79,1030.09C5024.81,1030.1 5024.83,1030.11 5024.87,1030.11C5024.88,1030.11 5024.91,1030.11 5024.94,1030.09C5024.98,1030.07 5025.03,1030.03 5025.11,1029.98C5026.18,1029.23 5031.23,1025.11 5032.69,1023.78Z" transform="matrix(1.25,0,0,5.23929,3511.78,201.921) matrix(0.8,0,0,0.190866,-2809.42,-38.5398)"/></g></svg>