<svg viewBox="0 0 29 28" xmlns="http://www.w3.org/2000/svg" fill-rule="evenodd" clip-rule="evenodd" stroke-linejoin="round" stroke-miterlimit="2"><g transform="matrix(1,0,0,1,-3727.38,-3618.56) matrix(1,0,0,2.56703,3655.13,1661.21) matrix(1,0,0,1,-0.262144,-14.3799)"><path d="M3746.98,3623.8L3753.39,3623.8C3753.95,3623.8 3754.39,3624.25 3754.39,3624.8C3754.39,3628.34 3754.39,3640.26 3754.39,3643.8C3754.39,3644.35 3753.95,3644.8 3753.39,3644.8C3749.32,3644.8 3733.97,3644.8 3729.89,3644.8C3729.34,3644.8 3728.89,3644.35 3728.89,3643.8C3728.89,3640.26 3728.89,3628.34 3728.89,3624.8C3728.89,3624.25 3729.34,3623.8 3729.89,3623.8L3736.31,3623.8L3736.31,3622.32L3729.38,3622.32C3728.85,3622.32 3728.34,3622.53 3727.97,3622.9C3727.59,3623.28 3727.38,3623.79 3727.38,3624.32C3727.38,3628.84 3727.38,3639.8 3727.38,3644.32C3727.38,3644.85 3727.59,3645.36 3727.97,3645.73C3728.34,3646.11 3728.85,3646.32 3729.38,3646.32C3734.62,3646.32 3748.67,3646.32 3753.9,3646.32C3754.43,3646.32 3754.94,3646.11 3755.32,3645.73C3755.69,3645.36 3755.9,3644.85 3755.9,3644.32C3755.9,3639.8 3755.9,3628.84 3755.9,3624.32C3755.9,3623.79 3755.69,3623.28 3755.32,3622.9C3754.94,3622.53 3754.43,3622.32 3753.9,3622.32L3746.98,3622.32L3746.98,3623.8Z" transform="matrix(1,0,0,0.389555,-3654.86,-632.751)"/><path d="M3740.8,3634.3L3740.8,3619.06C3740.8,3618.93 3740.85,3618.8 3740.95,3618.7C3741.04,3618.61 3741.17,3618.56 3741.3,3618.56C3741.52,3618.56 3741.78,3618.56 3742,3618.56C3742.13,3618.56 3742.26,3618.61 3742.36,3618.7C3742.45,3618.8 3742.5,3618.93 3742.5,3619.06L3742.5,3634.28L3745.64,3631.25C3745.74,3631.16 3745.87,3631.1 3746,3631.11C3746.13,3631.11 3746.26,3631.16 3746.35,3631.26C3746.5,3631.42 3746.68,3631.6 3746.84,3631.76C3746.93,3631.86 3746.98,3631.99 3746.98,3632.12C3746.97,3632.25 3746.92,3632.38 3746.83,3632.47C3745.82,3633.44 3743.01,3636.15 3742.01,3637.12C3741.94,3637.18 3741.87,3637.22 3741.78,3637.25C3741.74,3637.26 3741.69,3637.27 3741.64,3637.27C3741.51,3637.27 3741.38,3637.22 3741.29,3637.13C3740.28,3636.16 3737.46,3633.44 3736.46,3632.47C3736.37,3632.38 3736.31,3632.25 3736.31,3632.12C3736.31,3631.99 3736.36,3631.86 3736.45,3631.76C3736.6,3631.6 3736.78,3631.42 3736.93,3631.26C3737.03,3631.16 3737.15,3631.11 3737.29,3631.11C3737.42,3631.1 3737.55,3631.16 3737.64,3631.25L3740.8,3634.3Z" transform="matrix(1,0,1.2326e-32,0.389555,-3654.86,-632.751)"/></g></svg>