<svg viewBox="0 0 13 13" xmlns="http://www.w3.org/2000/svg" fill-rule="evenodd" clip-rule="evenodd" stroke-linejoin="round" stroke-miterlimit="2"><g transform="matrix(1,0,0,1,-4330.3,-2860.29) matrix(1.25,0,0,4.65124,3931.43,1168.91) matrix(0.75424,0,0,0.75424,79.8091,90.4877)"><path d="M4340.7,2861.62L4337.53,2861.57C4337.39,2861.57 4337.27,2861.51 4337.18,2861.41C4337.08,2861.32 4337.03,2861.19 4337.03,2861.06C4337.04,2860.97 4337.04,2860.87 4337.04,2860.78C4337.04,2860.64 4337.1,2860.52 4337.19,2860.43C4337.29,2860.33 4337.42,2860.28 4337.55,2860.29C4338.65,2860.3 4341.26,2860.35 4342.35,2860.37C4342.45,2860.37 4342.55,2860.4 4342.63,2860.46C4342.77,2860.54 4342.86,2860.7 4342.87,2860.88C4342.89,2861.97 4342.93,2864.59 4342.95,2865.69C4342.96,2865.96 4342.74,2866.19 4342.46,2866.2C4342.37,2866.2 4342.27,2866.2 4342.18,2866.2C4341.9,2866.21 4341.67,2865.99 4341.67,2865.71L4341.61,2862.52L4338.24,2865.9C4338.04,2866.09 4337.73,2866.09 4337.53,2865.9C4337.47,2865.83 4337.4,2865.76 4337.33,2865.7C4337.14,2865.5 4337.14,2865.18 4337.33,2864.99L4340.7,2861.62Z" transform="matrix(1.06067,0,2.35516e-16,0.28505,-4275.76,-453.172)"/><path d="M4330.63,2872.76C4330.49,2872.67 4330.39,2872.52 4330.39,2872.34C4330.37,2871.24 4330.32,2868.63 4330.3,2867.53C4330.3,2867.25 4330.52,2867.02 4330.79,2867.02C4330.89,2867.02 4330.98,2867.02 4331.08,2867.01C4331.35,2867.01 4331.58,2867.23 4331.59,2867.51L4331.64,2870.69L4335.02,2867.32C4335.11,2867.22 4335.24,2867.17 4335.37,2867.17C4335.51,2867.17 4335.63,2867.22 4335.73,2867.32C4335.79,2867.38 4335.86,2867.45 4335.93,2867.52C4336.02,2867.61 4336.07,2867.74 4336.07,2867.87C4336.07,2868 4336.02,2868.13 4335.93,2868.22L4332.56,2871.59L4335.73,2871.65C4335.86,2871.65 4335.99,2871.7 4336.08,2871.8C4336.17,2871.9 4336.22,2872.02 4336.22,2872.16C4336.22,2872.25 4336.22,2872.35 4336.21,2872.44C4336.21,2872.57 4336.16,2872.7 4336.06,2872.79C4335.97,2872.88 4335.84,2872.93 4335.7,2872.93C4334.61,2872.91 4332,2872.87 4330.9,2872.85C4330.8,2872.84 4330.71,2872.81 4330.63,2872.76Z" transform="matrix(1.06067,0,-5.8879e-17,0.28505,-4275.76,-453.172)"/></g></svg>