<svg viewBox="0 0 18 14" xmlns="http://www.w3.org/2000/svg" xml:space="preserve" fill-rule="evenodd" clip-rule="evenodd" stroke-linejoin="round" stroke-miterlimit="2"><g transform="matrix(1,0,0,1,-6576.67,-2184.29) matrix(1.25,0,0,1.37446,5285.74,1431.59) matrix(1,0,0,1,-18.0032,-2.57765)"><path d="M6583.34,2186.99L6576.67,2186.99L6576.67,2188.59L6583.34,2188.59L6583.34,2186.99ZM6584.94,2186.99L6584.94,2188.59L6594.67,2188.59L6594.67,2186.99L6584.94,2186.99Z" fill="#003567" transform="matrix(0.8,0,0,0.727558,-4210.59,-1038.98)"/><rect x="4845.32" y="2255.61" width="1.5" height="6.883" fill="#003567" transform="matrix(0.853333,0,0,0.739939,-3079.8,-1118.8)"/><path d="M6587.11,2193.99L6576.67,2193.99L6576.67,2195.59L6587.11,2195.59L6587.11,2193.99ZM6588.71,2193.99L6588.71,2195.59L6594.67,2195.59L6594.67,2193.99L6588.71,2193.99Z" fill="#003567" transform="matrix(0.8,0,0,0.727558,-4210.59,-1038.98)"/><rect x="4845.32" y="2255.61" width="1.5" height="6.883" fill="#003567" transform="matrix(0.853333,0,0,0.739939,-3074.3,-1113.71)"/></g></svg>