<svg viewBox="0 0 4 7" xmlns="http://www.w3.org/2000/svg" xml:space="preserve" fill-rule="evenodd" clip-rule="evenodd" stroke-linejoin="round" stroke-miterlimit="2"><path d="M7321.02,2635.83C7321.12,2635.77 7321.22,2635.72 7321.33,2635.66C7321.44,2635.61 7321.56,2635.57 7321.69,2635.53C7321.82,2635.49 7321.96,2635.45 7322.1,2635.43C7322.25,2635.41 7322.41,2635.4 7322.59,2635.4C7322.82,2635.4 7323.04,2635.42 7323.24,2635.47C7323.43,2635.52 7323.6,2635.59 7323.74,2635.68C7323.88,2635.76 7323.98,2635.87 7324.06,2635.99C7324.14,2636.12 7324.18,2636.26 7324.18,2636.41C7324.18,2636.57 7324.15,2636.69 7324.09,2636.8C7324.03,2636.91 7323.96,2637 7323.87,2637.08C7323.78,2637.16 7323.68,2637.23 7323.57,2637.29C7323.47,2637.35 7323.37,2637.41 7323.28,2637.46C7323.18,2637.51 7323.1,2637.56 7323.03,2637.61C7322.96,2637.66 7322.92,2637.72 7322.91,2637.78L7322.81,2638.2L7322.09,2638.2L7322.01,2637.73C7321.99,2637.63 7322.01,2637.55 7322.06,2637.48C7322.11,2637.41 7322.18,2637.35 7322.27,2637.29C7322.36,2637.23 7322.46,2637.18 7322.56,2637.12C7322.67,2637.07 7322.77,2637.01 7322.86,2636.95C7322.96,2636.89 7323.03,2636.82 7323.1,2636.74C7323.16,2636.66 7323.19,2636.57 7323.19,2636.46C7323.19,2636.32 7323.13,2636.22 7323,2636.14C7322.87,2636.06 7322.7,2636.02 7322.49,2636.02C7322.34,2636.02 7322.22,2636.03 7322.11,2636.06C7322.01,2636.08 7321.92,2636.11 7321.85,2636.14C7321.78,2636.16 7321.71,2636.19 7321.66,2636.22C7321.61,2636.24 7321.57,2636.25 7321.52,2636.25C7321.43,2636.25 7321.35,2636.22 7321.3,2636.16L7321.02,2635.83ZM7321.76,2639.29C7321.76,2639.23 7321.78,2639.17 7321.81,2639.11C7321.84,2639.06 7321.89,2639.01 7321.94,2638.97C7322,2638.93 7322.07,2638.89 7322.14,2638.87C7322.22,2638.85 7322.31,2638.83 7322.39,2638.83C7322.48,2638.83 7322.57,2638.85 7322.65,2638.87C7322.72,2638.89 7322.79,2638.93 7322.85,2638.97C7322.9,2639.01 7322.95,2639.06 7322.98,2639.11C7323.02,2639.17 7323.03,2639.23 7323.03,2639.29C7323.03,2639.36 7323.02,2639.42 7322.98,2639.48C7322.95,2639.53 7322.9,2639.58 7322.85,2639.62C7322.79,2639.66 7322.72,2639.7 7322.65,2639.72C7322.57,2639.74 7322.48,2639.75 7322.39,2639.75C7322.31,2639.75 7322.22,2639.74 7322.14,2639.72C7322.07,2639.7 7322,2639.66 7321.94,2639.62C7321.89,2639.58 7321.84,2639.53 7321.81,2639.48C7321.78,2639.42 7321.76,2639.36 7321.76,2639.29Z" fill-rule="nonzero" transform="matrix(1,0,0,1,-7323.81,-2632.68) matrix(1.25,0,0,1.81164,6952.33,1499.65) matrix(0.842914,0,0,0.79535,-5873.81,-1470.65)"/></svg>