<svg viewBox="0 0 21 21" version="1.1" xmlns="http://www.w3.org/2000/svg" xml:space="preserve" fill-rule="evenodd" clip-rule="evenodd" stroke-linejoin="round" stroke-miterlimit="2"><path d="M502.05,407.127L445.289,369.283L394.83,335.65C385.092,329.171 372.005,331.295 364.816,340.523L333.593,380.662C326.886,389.372 314.821,391.875 305.203,386.55C284.017,374.765 258.964,363.669 203.686,308.32C148.408,252.971 137.241,227.989 125.456,206.803C120.131,197.185 122.634,185.12 131.344,178.414L171.483,147.191C180.71,140.003 182.835,126.916 176.356,117.177L143.756,68.272L104.879,9.956C98.262,0.03 85.016,-2.95 74.786,3.185L29.95,30.083C17.833,37.222 8.926,48.75 5.074,62.277C-7.187,106.98 -9.659,205.593 148.381,363.633C306.421,521.673 405.025,519.193 449.728,506.931C463.255,503.08 474.783,494.173 481.922,482.055L508.82,437.22C514.956,426.989 511.976,413.744 502.05,407.127Z" fill="white" fill-rule="nonzero" transform="matrix(1,0,0,1,-2367.74,-19.7887) matrix(1,0,0,2.47905,1285.95,-10) matrix(0.0398876,0,0,0.0160899,1081.79,12.0162)"/></svg>