<svg viewBox="0 0 21 15" version="1.1" xmlns="http://www.w3.org/2000/svg" xml:space="preserve" fill-rule="evenodd" clip-rule="evenodd" stroke-linejoin="round" stroke-miterlimit="2"><g transform="matrix(1,0,0,1,-2416.23,-22.6635) matrix(1,0,0,2.47905,1334.49,-10) matrix(0.0429875,0,0,0.0173403,1081.73,11.992)"><path d="M249.702,286.31C243.414,291.459 234.367,291.459 228.079,286.31L0,98.406L0,392.533C0,401.959 7.641,409.6 17.067,409.6L460.8,409.6C470.226,409.6 477.867,401.959 477.867,392.533L477.867,100.932L249.702,286.31Z" fill="white" fill-rule="nonzero"/><path d="M460.8,68.267L17.067,68.267L238.934,251.017L463.309,68.779C462.488,68.539 461.649,68.368 460.8,68.267Z" fill="white" fill-rule="nonzero"/></g></svg>