<svg viewBox="0 0 14 26" xmlns="http://www.w3.org/2000/svg" fill-rule="evenodd" clip-rule="evenodd" stroke-linejoin="round" stroke-miterlimit="2"><path d="M2409.21,319.078L2398.69,308.185C2398.6,308.089 2398.55,307.961 2398.55,307.829C2398.55,307.696 2398.61,307.57 2398.7,307.478C2399,307.192 2399.41,306.79 2399.71,306.505C2399.8,306.413 2399.93,306.363 2400.06,306.365C2400.2,306.367 2400.32,306.422 2400.41,306.517C2402.21,308.373 2410.39,316.852 2412.19,318.708C2412.22,318.738 2412.24,318.772 2412.26,318.808C2412.31,318.887 2412.34,318.979 2412.35,319.075C2412.35,319.207 2412.3,319.335 2412.2,319.431C2410.41,321.288 2402.21,329.781 2400.41,331.639C2400.32,331.734 2400.2,331.789 2400.06,331.792C2399.93,331.794 2399.8,331.743 2399.71,331.651C2399.41,331.366 2399,330.964 2398.7,330.679C2398.61,330.587 2398.55,330.46 2398.55,330.328C2398.55,330.195 2398.6,330.067 2398.69,329.972L2409.21,319.078Z" transform="matrix(1,0,0,1,-2398.55,-306.365) matrix(1.74986,0,0,6.51121,1937.51,-2327.46) matrix(-0.571475,0,0,0.153581,1642.07,357.454)"/></svg>