<svg viewBox="0 0 208 56" xmlns="http://www.w3.org/2000/svg" fill-rule="evenodd" clip-rule="evenodd" stroke-linejoin="round" stroke-miterlimit="2"><g transform="matrix(1,0,0,1,-230,-59.5165) matrix(1,0,0,3.35782,160,21.124)"><g id="Logo" transform="matrix(1.06121,0,0,0.316042,54.7185,7.13556)"><path d="M106.9,15.7L111,15.7L111,22L117.4,22L117.4,26.1L111,26.1L111,32.5L106.9,32.5L106.9,26.1L100.4,26.1L100.4,22L106.9,22L106.9,15.7Z" fill-rule="nonzero"/><path d="M14.4,44.5L31.6,44.5L31.6,49.3L20.3,49.3L20.3,52.7L31.2,52.7L31.2,57.5L20.3,57.5L20.3,61.1L31.6,61.1L31.6,65.9L14.4,65.9L14.4,44.5Z" fill-rule="nonzero"/><path d="M37.3,61.1L50.4,61.1L50.4,57.6L45.4,57.6C41.4,57.6 40.7,57.5 39.4,56.9C37.6,56.1 36.5,54 36.5,51.1C36.5,48.5 37.5,46.4 39.2,45.4C40.4,44.7 41.5,44.5 44.3,44.5L54.7,44.5L54.7,49.3L42.4,49.3L42.4,52.8L48.7,52.8C51.3,52.8 52.6,53.1 53.8,53.8C55.4,54.8 56.3,56.7 56.3,59.1C56.3,61.6 55.4,63.7 53.8,64.7C52.5,65.5 51.2,65.8 48.3,65.8L37.3,65.8L37.3,61.1Z" fill-rule="nonzero"/><path d="M68.3,65.9C64.3,65.9 62.2,65.1 61,63.2C60.2,61.9 60,60.5 60,56.2C60,51.3 60.2,49.2 60.9,47.7C61.8,45.6 64.2,44.5 68.2,44.5L77.5,44.5L77.5,49.3L66,49.3L66,61.1L77.5,61.1L77.5,65.9L68.3,65.9Z" fill-rule="nonzero"/><path d="M82.6,44.5L88.4,44.5L88.4,52.6L97.3,52.6L97.3,44.5L103.1,44.5L103.1,65.9L97.3,65.9L97.3,57.4L88.4,57.4L88.4,65.9L82.6,65.9L82.6,44.5Z" fill-rule="nonzero"/><path d="M108.5,44.5L125.7,44.5L125.7,49.3L114.4,49.3L114.4,52.7L125.3,52.7L125.3,57.5L114.4,57.5L114.4,61.1L125.7,61.1L125.7,65.9L108.5,65.9L108.5,44.5Z" fill-rule="nonzero"/><path d="M130.9,44.5L143.7,44.5C146.1,44.5 147.6,44.8 148.7,45.5C150,46.3 150.8,48 150.8,50C150.8,52.6 149.6,54.2 147.3,54.8C148.4,55.1 148.9,55.4 149.4,56.1C150.3,57.3 150.5,58.2 150.5,61.4L150.5,66L144.7,66L144.7,58L136.6,58L136.6,66L130.8,66L130.9,44.5ZM144.9,53.4L144.9,49.1L136.8,49.1L136.8,53.4L144.9,53.4Z" fill-rule="nonzero"/><rect x="156.1" y="44.5" width="5.8" height="21.4" fill-rule="nonzero"/><path d="M175.6,65.9C171.6,65.9 169.5,65.1 168.3,63.2C167.5,61.9 167.3,60.5 167.3,56.2C167.3,51.3 167.5,49.2 168.2,47.7C169.1,45.6 171.5,44.5 175.5,44.5L184.8,44.5L184.8,49.3L173.3,49.3L173.3,61.1L184.8,61.1L184.8,65.9L175.6,65.9Z" fill-rule="nonzero"/><path d="M189.9,44.5L195.7,44.5L195.7,52.6L204.6,52.6L204.6,44.5L210.4,44.5L210.4,65.9L204.7,65.9L204.7,57.4L195.8,57.4L195.8,65.9L190,65.9L190,44.5L189.9,44.5Z" fill-rule="nonzero"/><g><path d="M27.7,13.6L20.2,22.5L20.2,13.6L14.4,13.6L14.4,35L20.2,35L20.2,25.4L28,35L35,35L25.9,23.8L34.5,13.6L27.7,13.6Z" fill-rule="nonzero"/><rect x="39.3" y="13.6" width="5.8" height="21.4"/><path d="M50.8,30.2L63.9,30.2L63.9,26.7L58.9,26.7C54.9,26.7 54.2,26.6 52.9,26C51.1,25.2 50,23.1 50,20.2C50,17.6 51,15.5 52.7,14.5C53.9,13.8 55,13.6 57.8,13.6L68.2,13.6L68.2,18.4L55.9,18.4L55.9,21.9L62.2,21.9C64.8,21.9 66.1,22.2 67.3,22.9C68.9,23.9 69.8,25.8 69.8,28.2C69.8,30.7 68.9,32.8 67.3,33.8C66,34.7 64.7,35 61.8,35L50.8,35L50.8,30.2Z" fill-rule="nonzero"/><path d="M71.6,13.6L71.6,18.4L78.5,18.4L78.5,35L84.4,35L84.4,18.4L91.5,18.4L91.5,13.6L71.6,13.6Z" fill-rule="nonzero"/></g></g></g></svg>