<svg viewBox="0 0 21 17" xmlns="http://www.w3.org/2000/svg" xml:space="preserve" style="fill-rule:evenodd;clip-rule:evenodd;stroke-linejoin:round;stroke-miterlimit:2"><path d="M21.438 7.097c.172.094.308.219.41.375.1.153.153.333.152.516v11.027a.942.942 0 0 1-.129.48c-.086.15-.207.27-.363.364h.024a.924.924 0 0 1-.258.106 1.149 1.149 0 0 1-.515.012.83.83 0 0 1-.211-.07l-5.55-2.793-5.55 2.792a.83.83 0 0 1-.211.07 1.194 1.194 0 0 1-.469 0 .824.824 0 0 1-.21-.07l-5.996-3.003a1.11 1.11 0 0 1-.41-.375.935.935 0 0 1-.152-.516V4.985c0-.266.098-.496.293-.692A.972.972 0 0 1 3.007 4c.078 0 .156.008.234.023.078.016.149.04.211.07l5.55 2.793 5.55-2.792a.83.83 0 0 1 .211-.07c.155-.031.314-.031.469 0a.81.81 0 0 1 .21.07l5.996 3.003ZM10.009 8.622v8.774l3.982-2.018V6.604l-3.982 2.018ZM4.014 6.604v8.774l3.981 2.018V8.622l-3.98-2.018h-.001Zm15.972 10.792V8.622l-3.981-2.018v8.774l3.98 2.018h.001Z" style="fill-rule:nonzero" transform="matrix(1 0 0 1 -2 -4)"/></svg>