<svg viewBox="0 0 73 73" xmlns="http://www.w3.org/2000/svg" xml:space="preserve" fill-rule="evenodd" clip-rule="evenodd" stroke-linejoin="round" stroke-miterlimit="2"><g transform="matrix(1,0,0,1,-7862.31,-2487.79) matrix(0.991071,0,0,1.01852,6916.26,1639.58) matrix(0.78061,0,0,0.78061,216.242,189.485)"><path d="M7585.81,2509.74C7592.15,2508.98 7596.68,2506.13 7599.35,2501.09C7599.88,2500.09 7601.12,2499.71 7602.12,2500.24C7603.12,2500.77 7603.5,2502.01 7602.97,2503.01C7599.67,2509.24 7594.13,2512.87 7586.3,2513.81C7585.18,2513.95 7584.16,2513.15 7584.02,2512.02C7583.89,2510.9 7584.69,2509.88 7585.81,2509.74Z" transform="matrix(0.845358,-0.536036,-0.550881,-0.822578,-4046.02,7016.45)"/><path d="M7888.24,2513.89L7885.71,2511.36C7885.12,2510.78 7884.17,2510.78 7883.59,2511.36C7883,2511.95 7883,2512.9 7883.59,2513.48L7886.12,2516.01L7883.59,2518.54C7883,2519.13 7883,2520.08 7883.59,2520.66C7884.17,2521.25 7885.12,2521.25 7885.71,2520.66L7888.24,2518.13L7890.77,2520.66C7891.36,2521.25 7892.31,2521.25 7892.89,2520.66C7893.48,2520.08 7893.48,2519.13 7892.89,2518.54L7890.36,2516.01L7892.89,2513.48C7893.48,2512.9 7893.48,2511.95 7892.89,2511.36C7892.31,2510.78 7891.36,2510.78 7890.77,2511.36L7888.24,2513.89Z" transform="matrix(1.29259,0,0,1.25776,-9216.91,-2304.94)"/><path d="M7907.57,2513.89L7905.04,2511.36C7904.46,2510.78 7903.51,2510.78 7902.92,2511.36C7902.34,2511.95 7902.34,2512.9 7902.92,2513.48L7905.45,2516.01L7902.92,2518.54C7902.34,2519.13 7902.34,2520.08 7902.92,2520.66C7903.51,2521.25 7904.46,2521.25 7905.04,2520.66L7907.57,2518.13L7910.11,2520.66C7910.69,2521.25 7911.64,2521.25 7912.23,2520.66C7912.81,2520.08 7912.81,2519.13 7912.23,2518.54L7909.7,2516.01L7912.23,2513.48C7912.81,2512.9 7912.81,2511.95 7912.23,2511.36C7911.64,2510.78 7910.69,2510.78 7910.11,2511.36L7907.57,2513.89Z" transform="matrix(1.29259,0,0,1.25776,-9216.91,-2304.94)"/><path d="M6459.48,2558.14C6479.4,2558.14 6495.58,2574.31 6495.58,2594.23C6495.58,2614.15 6479.4,2630.33 6459.48,2630.33C6439.56,2630.33 6423.38,2614.15 6423.38,2594.23C6423.38,2574.31 6439.56,2558.14 6459.48,2558.14ZM6459.48,2562.14C6477.19,2562.14 6491.58,2576.52 6491.58,2594.23C6491.58,2611.95 6477.19,2626.33 6459.48,2626.33C6441.77,2626.33 6427.38,2611.95 6427.38,2594.23C6427.38,2576.52 6441.77,2562.14 6459.48,2562.14Z" transform="matrix(1.29259,0,0,1.25776,-7356.96,-2393.42)"/></g></svg>