<svg viewBox="0 0 43 46" xmlns="http://www.w3.org/2000/svg" xml:space="preserve" fill-rule="evenodd" clip-rule="evenodd" stroke-linejoin="round" stroke-miterlimit="2"><g transform="matrix(1,0,0,1,-962.759,-742.296)"><path d="M984,742.25C984,738.952 979.331,736.274 973.58,736.274L960.767,736.274C955.016,736.274 950.347,738.952 950.347,742.25L950.347,784.798C950.347,788.097 955.016,790.774 960.767,790.774L973.58,790.774C979.331,790.774 984,788.097 984,784.798L984,742.25ZM976.706,742.25C976.706,741.261 975.306,740.457 973.58,740.457C973.58,740.457 960.767,740.457 960.767,740.457C959.041,740.457 957.641,741.261 957.641,742.25L957.641,784.798C957.641,785.788 959.041,786.591 960.767,786.591L973.58,786.591C975.306,786.591 976.706,785.788 976.706,784.798C976.706,784.798 976.706,742.25 976.706,742.25Z" transform="matrix(1.25,0,0,6.1545,184,0) matrix(-0.383891,0,0,0.135949,1000.76,20.5146)"/><path d="M984,742.25C984,738.952 979.331,736.274 973.58,736.274L960.767,736.274C955.016,736.274 950.347,738.952 950.347,742.25L950.347,784.798C950.347,788.097 955.016,790.774 960.767,790.774L973.58,790.774C979.331,790.774 984,788.097 984,784.798L984,742.25ZM976.706,742.25C976.706,741.261 975.306,740.457 973.58,740.457C973.58,740.457 960.767,740.457 960.767,740.457C959.041,740.457 957.641,741.261 957.641,742.25C957.641,742.25 957.641,784.798 957.641,784.798C957.641,785.788 959.041,786.591 960.767,786.591L973.58,786.591C975.306,786.591 976.706,785.788 976.706,784.798L976.706,742.25Z" transform="matrix(1.25,0,0,6.1545,184,0) matrix(-0.383891,0,0,0.135949,1021.82,20.5222)"/></g></svg>