<?xml version="1.0" encoding="UTF-8" standalone="no"?>
<!DOCTYPE svg PUBLIC "-//W3C//DTD SVG 1.1//EN" "http://www.w3.org/Graphics/SVG/1.1/DTD/svg11.dtd">
<svg width="100%" height="100%" viewBox="0 0 24 24" version="1.1" xmlns="http://www.w3.org/2000/svg" xmlns:xlink="http://www.w3.org/1999/xlink" xml:space="preserve" xmlns:serif="http://www.serif.com/" style="fill-rule:evenodd;clip-rule:evenodd;stroke-linejoin:round;stroke-miterlimit:2;">
    <g transform="matrix(1.17917,0,0,1.34807,-29.7486,-1.0868)">
        <rect x="25.228" y="0.806" width="20.353" height="17.803" style="fill:none;"/>
        <g transform="matrix(-0.000239391,0.376501,-0.329688,-0.000160391,290.264,-296.45)">
            <path d="M809.601,748.985C810.537,747.414 811.976,746.495 813.5,746.495C815.024,746.495 816.463,747.414 817.399,748.985C821.925,756.582 829.183,768.766 834.494,777.68C835.653,779.625 835.861,782.259 835.032,784.472C834.203,786.684 832.482,788.088 830.595,788.088L796.405,788.088C794.518,788.088 792.797,786.684 791.968,784.472C791.139,782.259 791.347,779.625 792.506,777.68C797.817,768.766 805.075,756.582 809.601,748.985L809.601,748.985ZM812.768,752.2L795.673,780.896C795.456,781.261 795.416,781.755 795.572,782.171C795.727,782.586 796.05,782.849 796.405,782.849L830.595,782.849C830.95,782.849 831.273,782.586 831.428,782.171C831.584,781.755 831.544,781.261 831.327,780.896L814.232,752.2C814.057,751.905 813.787,751.733 813.5,751.733C813.213,751.733 812.943,751.905 812.768,752.201L812.768,752.2Z"/>
        </g>
    </g>
</svg>
