<svg viewBox="0 0 13 17" xmlns="http://www.w3.org/2000/svg" xml:space="preserve" fill-rule="evenodd" clip-rule="evenodd" stroke-linejoin="round" stroke-miterlimit="2"><path d="M809.29,748.669C810.301,746.973 811.854,745.981 813.5,745.981C815.146,745.981 816.699,746.973 817.71,748.669C822.236,756.266 829.494,768.45 834.805,777.364C836.056,779.464 836.281,782.309 835.386,784.698C834.491,787.087 832.632,788.602 830.595,788.602C820.728,788.602 806.272,788.602 796.405,788.602C794.368,788.602 792.509,787.087 791.614,784.698C790.719,782.309 790.944,779.464 792.195,777.364C797.506,768.45 804.764,756.266 809.29,748.669ZM813.079,752.516C813.18,752.346 813.335,752.247 813.5,752.247C813.665,752.247 813.82,752.346 813.921,752.516C813.921,752.516 831.016,781.212 831.016,781.212C831.141,781.422 831.164,781.706 831.074,781.945C830.985,782.184 830.799,782.335 830.595,782.335C820.728,782.335 806.272,782.335 796.405,782.335C796.201,782.335 796.015,782.184 795.926,781.945C795.836,781.706 795.859,781.422 795.984,781.212L813.079,752.516Z" transform="matrix(1,0,0,1,-795.68,-867.994) matrix(0.46875,0,0,2.30794,502.431,589.502) matrix(-0.000444939,0.162483,-0.612766,-6.92185e-05,1109.2,-7.81445)"/></svg>