<svg viewBox="0 0 33 46" xmlns="http://www.w3.org/2000/svg" xml:space="preserve" fill-rule="evenodd" clip-rule="evenodd" stroke-linejoin="round" stroke-miterlimit="2"><path d="M809.553,748.227C810.501,746.637 811.957,745.707 813.5,745.707C815.043,745.707 816.499,746.637 817.447,748.227C822.067,755.983 829.779,768.928 835.224,778.067C836.396,780.035 836.607,782.703 835.768,784.942C834.929,787.182 833.186,788.602 831.277,788.602C821.179,788.602 805.821,788.602 795.723,788.602C793.814,788.602 792.071,787.182 791.232,784.942C790.393,782.703 790.604,780.035 791.776,778.067C797.221,768.928 804.933,755.983 809.553,748.227ZM812.553,751.273C812.78,750.891 813.13,750.668 813.5,750.668C813.87,750.668 814.22,750.891 814.447,751.273C819.068,759.029 826.78,771.974 832.224,781.113C832.505,781.585 832.556,782.225 832.355,782.763C832.153,783.3 831.735,783.641 831.277,783.641C831.277,783.641 795.723,783.641 795.723,783.641C795.265,783.641 794.847,783.3 794.645,782.763C794.444,782.225 794.495,781.585 794.776,781.113L812.553,751.273Z" transform="matrix(1,0,0,1,-785.998,-742.296) matrix(1.25,0,0,6.1545,0,0) matrix(-0.000444939,0.162483,-0.612766,-6.92185e-05,1112.4,-7.81445)"/></svg>