<svg viewBox="0 0 28 28" xmlns="http://www.w3.org/2000/svg" xml:space="preserve" fill-rule="evenodd" clip-rule="evenodd" stroke-linejoin="round" stroke-miterlimit="2"><path d="M6461.44,2561.4L6451.52,2561.4C6450.43,2561.4 6449.54,2562.29 6449.54,2563.39C6449.54,2564.48 6450.43,2565.37 6451.52,2565.37L6461.44,2565.37L6461.44,2575.28C6461.44,2576.37 6462.32,2577.26 6463.42,2577.26C6464.51,2577.26 6465.4,2576.37 6465.4,2575.28L6465.4,2565.37L6475.31,2565.37C6476.4,2565.37 6477.29,2564.48 6477.29,2563.39C6477.29,2562.29 6476.4,2561.4 6475.31,2561.4L6465.4,2561.4L6465.4,2551.49C6465.4,2550.4 6464.51,2549.51 6463.42,2549.51C6462.32,2549.51 6461.44,2550.4 6461.44,2551.49L6461.44,2561.4Z" fill="#fff" transform="matrix(1,0,0,1,-6449.54,-2549.51) matrix(0.991071,0,0,1.01852,5481.26,1679.08) matrix(1.00901,0,0,0.981819,-5530.65,-1648.55)"/></svg>