<svg viewBox="0 0 21 30" xmlns="http://www.w3.org/2000/svg" fill-rule="evenodd" clip-rule="evenodd" stroke-linejoin="round" stroke-miterlimit="2"><g transform="matrix(1,0,0,1,-5017.49,-950.334)"><g transform="matrix(1.25,0,0,5.23929,3508.53,135.62) matrix(0.427585,0,0,0.261873,1178.25,-47.9039)"><path d="M5030.57,952.546L5030.57,953.491L5033.22,953.491C5033.49,953.491 5033.74,953.596 5033.93,953.783C5034.12,953.971 5034.22,954.225 5034.22,954.491C5034.22,956.572 5034.22,961.348 5034.22,963.43C5034.22,963.695 5034.12,963.949 5033.93,964.137C5033.74,964.324 5033.49,964.43 5033.22,964.43C5030.8,964.43 5024.64,964.43 5022.22,964.43C5021.96,964.43 5021.7,964.324 5021.51,964.137C5021.33,963.949 5021.22,963.695 5021.22,963.43C5021.22,961.348 5021.22,956.572 5021.22,954.491C5021.22,954.225 5021.33,953.971 5021.51,953.783C5021.7,953.596 5021.96,953.491 5022.22,953.491L5024.87,953.491L5024.87,952.546L5022.1,952.546C5021.57,952.546 5021.06,952.757 5020.69,953.132C5020.31,953.507 5020.1,954.016 5020.1,954.546C5020.1,956.952 5020.1,960.968 5020.1,963.374C5020.1,963.904 5020.31,964.413 5020.69,964.788C5021.06,965.163 5021.57,965.374 5022.1,965.374C5025.02,965.374 5030.42,965.374 5033.34,965.374C5033.87,965.374 5034.38,965.163 5034.76,964.788C5035.13,964.413 5035.34,963.904 5035.34,963.374C5035.34,960.968 5035.34,956.952 5035.34,954.546C5035.34,954.016 5035.13,953.507 5034.76,953.132C5034.38,952.757 5033.87,952.546 5033.34,952.546L5030.57,952.546Z" transform="matrix(1.87097,0,0,0.728847,-9319.95,84.0816)"/><path d="M5027.17,958.586L5027.17,950.834C5027.17,950.558 5027.4,950.334 5027.67,950.334C5027.7,950.334 5027.74,950.334 5027.77,950.334C5028.05,950.334 5028.27,950.558 5028.27,950.834L5028.27,958.586L5029.56,957.342C5029.65,957.25 5029.78,957.2 5029.91,957.202C5030.05,957.204 5030.17,957.259 5030.27,957.355C5030.29,957.379 5030.31,957.403 5030.34,957.427C5030.43,957.522 5030.48,957.65 5030.48,957.783C5030.47,957.915 5030.42,958.041 5030.32,958.134C5029.75,958.683 5028.65,959.747 5028.08,960.297C5028.01,960.372 5027.91,960.419 5027.8,960.433C5027.65,960.461 5027.48,960.417 5027.36,960.301C5026.79,959.75 5025.69,958.684 5025.12,958.134C5024.92,957.942 5024.91,957.625 5025.11,957.427C5025.13,957.403 5025.15,957.379 5025.18,957.355C5025.37,957.156 5025.69,957.15 5025.88,957.342L5027.17,958.586Z" transform="matrix(1.87097,0,0,0.728847,-9319.95,84.0816)"/></g><g transform="matrix(1.25,0,0,5.23929,3508.53,135.62) matrix(0.942649,0,0,0.227268,-229.33,-58.9405)"><path d="M0.161,-0.239L0.161,-0L0.072,-0L0.072,-0.642L0.256,-0.642C0.295,-0.642 0.329,-0.637 0.358,-0.627C0.386,-0.618 0.41,-0.605 0.429,-0.587C0.448,-0.57 0.462,-0.549 0.471,-0.525C0.481,-0.5 0.485,-0.473 0.485,-0.442C0.485,-0.412 0.48,-0.385 0.47,-0.36C0.461,-0.336 0.446,-0.314 0.427,-0.296C0.407,-0.278 0.383,-0.264 0.355,-0.254C0.326,-0.244 0.293,-0.239 0.256,-0.239L0.161,-0.239ZM0.161,-0.31L0.256,-0.31C0.279,-0.31 0.299,-0.313 0.316,-0.319C0.334,-0.326 0.349,-0.335 0.361,-0.347C0.372,-0.358 0.381,-0.372 0.387,-0.389C0.393,-0.405 0.396,-0.423 0.396,-0.442C0.396,-0.483 0.385,-0.515 0.362,-0.538C0.339,-0.56 0.303,-0.572 0.256,-0.572L0.161,-0.572L0.161,-0.31Z" transform="matrix(11.8814,0,0,11.7576,1523.05,967.921)"/><path d="M0.582,-0.321C0.582,-0.273 0.575,-0.229 0.561,-0.189C0.547,-0.15 0.527,-0.116 0.501,-0.088C0.476,-0.06 0.445,-0.038 0.409,-0.023C0.373,-0.008 0.333,-0 0.29,-0L0.068,-0L0.068,-0.642L0.29,-0.642C0.333,-0.642 0.373,-0.634 0.409,-0.618C0.445,-0.603 0.476,-0.581 0.501,-0.553C0.527,-0.525 0.547,-0.491 0.561,-0.452C0.575,-0.412 0.582,-0.369 0.582,-0.321ZM0.491,-0.321C0.491,-0.36 0.486,-0.395 0.477,-0.426C0.467,-0.456 0.454,-0.482 0.436,-0.504C0.418,-0.525 0.397,-0.542 0.373,-0.553C0.348,-0.564 0.32,-0.57 0.29,-0.57L0.157,-0.57L0.157,-0.072L0.29,-0.072C0.32,-0.072 0.348,-0.077 0.373,-0.089C0.397,-0.1 0.418,-0.116 0.436,-0.137C0.454,-0.159 0.467,-0.185 0.477,-0.216C0.486,-0.247 0.491,-0.282 0.491,-0.321Z" transform="matrix(11.8814,0,0,11.7576,1529.18,967.921)"/><path d="M0.431,-0.642L0.431,-0.569L0.157,-0.569L0.157,-0.347L0.39,-0.347L0.39,-0.275L0.157,-0.275L0.157,-0L0.067,-0L0.067,-0.642L0.431,-0.642Z" transform="matrix(11.8814,0,0,11.7576,1536.49,967.921)"/></g></g></svg>