<svg viewBox="0 0 24 15" xmlns="http://www.w3.org/2000/svg" xml:space="preserve" fill-rule="evenodd" clip-rule="evenodd" stroke-linejoin="round" stroke-miterlimit="2"><g transform="matrix(1,0,0,1,-2516.38,-2987.6)"><path d="M2520.06,2994.07L2517.85,2991.93C2517.71,2991.8 2517.53,2991.73 2517.35,2991.73C2517.16,2991.73 2516.98,2991.81 2516.86,2991.94C2516.76,2992.04 2516.67,2992.14 2516.58,2992.23C2516.45,2992.37 2516.38,2992.55 2516.38,2992.73C2516.38,2992.92 2516.46,2993.09 2516.6,2993.22C2517.45,2994.05 2519.6,2996.13 2520.46,2996.95C2520.59,2997.08 2520.77,2997.15 2520.96,2997.15C2521.01,2997.15 2521.07,2997.14 2521.12,2997.13C2521.24,2997.1 2521.36,2997.04 2521.46,2996.95C2522.31,2996.12 2524.46,2994.05 2525.31,2993.22C2525.45,2993.09 2525.52,2992.92 2525.53,2992.73C2525.53,2992.55 2525.46,2992.37 2525.33,2992.23C2525.24,2992.14 2525.14,2992.04 2525.05,2991.94C2524.92,2991.81 2524.75,2991.73 2524.56,2991.73C2524.38,2991.73 2524.2,2991.8 2524.06,2991.93C2524.06,2991.93 2521.85,2994.06 2521.85,2994.06C2521.85,2994.06 2521.85,2989.88 2521.85,2989.88C2521.85,2989.74 2521.91,2989.61 2522.01,2989.51C2522.11,2989.41 2522.24,2989.35 2522.38,2989.35C2522.38,2989.35 2534.91,2989.35 2534.91,2989.35C2535.1,2989.35 2535.27,2989.28 2535.41,2989.15C2535.54,2989.02 2535.61,2988.84 2535.61,2988.65C2535.61,2988.54 2535.61,2988.41 2535.61,2988.3C2535.61,2988.11 2535.54,2987.93 2535.41,2987.8C2535.27,2987.67 2535.1,2987.6 2534.91,2987.6C2534.91,2987.6 2522.01,2987.6 2522.01,2987.6C2521.5,2987.6 2521,2987.8 2520.63,2988.17C2520.27,2988.53 2520.06,2989.03 2520.06,2989.55L2520.06,2994.07Z" transform="matrix(-3.844,0,0,-3.844,3595.43,4616.4) matrix(-0.260146,0,0,-0.260146,935.336,1200.94)"/><path d="M2534.23,2995.18L2534.23,2999.36C2534.23,2999.5 2534.17,2999.64 2534.07,2999.73C2533.97,2999.83 2533.84,2999.89 2533.7,2999.89C2533.7,2999.89 2521.17,2999.89 2521.17,2999.89C2520.98,2999.89 2520.8,2999.96 2520.67,3000.09C2520.54,3000.22 2520.47,3000.4 2520.47,3000.59C2520.47,3000.7 2520.47,3000.83 2520.47,3000.95C2520.47,3001.13 2520.54,3001.31 2520.67,3001.44C2520.8,3001.57 2520.98,3001.65 2521.17,3001.65C2521.17,3001.65 2534.06,3001.65 2534.06,3001.65C2534.58,3001.65 2535.08,3001.44 2535.45,3001.08C2535.81,3000.71 2536.02,3000.21 2536.02,2999.69C2536.02,2999.69 2536.02,2995.17 2536.02,2995.17C2536.02,2995.17 2538.23,2997.32 2538.23,2997.32C2538.37,2997.44 2538.55,2997.51 2538.73,2997.51C2538.92,2997.51 2539.09,2997.43 2539.22,2997.3C2539.31,2997.2 2539.41,2997.1 2539.5,2997.01C2539.63,2996.88 2539.7,2996.7 2539.7,2996.51C2539.69,2996.33 2539.62,2996.15 2539.48,2996.02C2538.63,2995.19 2536.48,2993.12 2535.62,2992.29C2535.49,2992.16 2535.31,2992.09 2535.12,2992.09C2535.07,2992.1 2535.01,2992.1 2534.96,2992.12C2534.84,2992.14 2534.72,2992.2 2534.62,2992.3C2533.77,2993.12 2531.62,2995.19 2530.77,2996.02C2530.63,2996.15 2530.56,2996.33 2530.55,2996.51C2530.55,2996.7 2530.62,2996.88 2530.75,2997.01C2530.84,2997.1 2530.94,2997.2 2531.03,2997.3C2531.16,2997.43 2531.33,2997.51 2531.52,2997.51C2531.7,2997.51 2531.88,2997.44 2532.02,2997.32L2534.23,2995.18Z" transform="matrix(-3.844,0,0,-3.844,3595.43,4616.4) matrix(-0.260146,0,0,-0.260146,935.336,1200.94)"/></g></svg>