<svg viewBox="0 0 26 26" xmlns="http://www.w3.org/2000/svg" fill-rule="evenodd" clip-rule="evenodd" stroke-linejoin="round" stroke-miterlimit="2"><g transform="matrix(1,0,0,1,-4839.5,-170.96) matrix(1,0,0,3.35782,3655.13,100.732)"><g id="Suche" transform="matrix(1,0,0,1,66.9301,-0.869895)"><path d="M1292.18,89.273C1300.32,89.273 1306.93,96.101 1306.93,104.51C1306.93,112.92 1300.32,119.747 1292.18,119.747C1284.05,119.747 1277.44,112.92 1277.44,104.51C1277.44,96.101 1284.05,89.273 1292.18,89.273ZM1292.18,93.082C1298.29,93.082 1303.24,98.203 1303.24,104.51C1303.24,110.817 1298.29,115.938 1292.18,115.938C1286.08,115.938 1281.13,110.817 1281.13,104.51C1281.13,98.203 1286.08,93.082 1292.18,93.082Z" fill="#003567" transform="matrix(0.678168,0,0,0.195452,251.12,4.33611)"/><path d="M1305.15,119.251C1305.15,118.185 1304.7,117.322 1304.15,117.322C1303.98,117.322 1303.81,117.322 1303.64,117.322C1303.08,117.322 1302.64,118.185 1302.64,119.251C1302.64,122.275 1302.64,128.097 1302.64,131.121C1302.64,132.187 1303.08,133.05 1303.64,133.05C1303.81,133.05 1303.98,133.05 1304.15,133.05C1304.7,133.05 1305.15,132.187 1305.15,131.121C1305.15,128.097 1305.15,122.275 1305.15,119.251Z" fill="#003567" transform="matrix(0.707107,-0.210585,0.366541,0.10916,170.833,289.035)"/></g></g></svg>