<svg viewBox="0 0 32 23" xmlns="http://www.w3.org/2000/svg" fill-rule="evenodd" clip-rule="evenodd" stroke-linejoin="round" stroke-miterlimit="2"><path d="M500.672,126.485L501.312,130.667C495.125,108.715 478.421,91.776 457.195,85.611L456.747,85.504C416.832,74.667 256.213,74.667 256.213,74.667C256.213,74.667 96,74.453 55.68,85.504C34.048,91.776 17.323,108.715 11.243,130.219L11.136,130.667C-3.776,208.555 -3.883,302.144 11.797,385.536L11.136,381.312C17.323,403.264 34.027,420.203 55.253,426.368L55.701,426.475C95.573,437.333 256.235,437.333 256.235,437.333C256.235,437.333 416.427,437.333 456.768,426.475C478.421,420.203 495.147,403.264 501.227,381.76L501.333,381.312C508.117,345.088 512,303.403 512,260.821C512,259.264 512,257.685 511.979,256.107C512,254.656 512,252.928 512,251.2C512,208.597 508.117,166.912 500.672,126.485ZM204.971,333.888L204.971,178.304L338.645,256.213L204.971,333.888Z" fill-rule="nonzero" transform="matrix(1,0,0,1,-2086.63,-4136.94) matrix(1.25,0,0,4.65124,1777.34,1241.57) matrix(0.0487861,0,0,0.0131111,247.432,621.516)"/></svg>