<svg viewBox="0 0 14 11" xmlns="http://www.w3.org/2000/svg" fill-rule="evenodd" clip-rule="evenodd" stroke-linejoin="round" stroke-miterlimit="2"><path d="M2307.54,2919.27L2304.5,2916.13C2304.41,2916.03 2304.36,2915.91 2304.36,2915.77C2304.36,2915.64 2304.42,2915.51 2304.51,2915.42C2304.67,2915.27 2304.86,2915.09 2305.02,2914.94C2305.11,2914.84 2305.24,2914.79 2305.37,2914.8C2305.51,2914.8 2305.63,2914.85 2305.72,2914.95C2306.69,2915.95 2309.41,2918.76 2310.38,2919.77C2310.44,2919.83 2310.48,2919.91 2310.5,2919.99C2310.51,2920.04 2310.52,2920.08 2310.52,2920.13C2310.53,2920.26 2310.47,2920.39 2310.38,2920.49C2309.41,2921.49 2306.69,2924.31 2305.72,2925.31C2305.63,2925.41 2305.51,2925.46 2305.37,2925.47C2305.24,2925.47 2305.11,2925.42 2305.02,2925.32C2304.86,2925.17 2304.67,2924.99 2304.51,2924.84C2304.42,2924.75 2304.36,2924.62 2304.36,2924.49C2304.36,2924.36 2304.41,2924.23 2304.5,2924.13L2307.55,2920.97L2297.14,2920.97C2296.87,2920.97 2296.64,2920.75 2296.64,2920.47C2296.64,2920.25 2296.64,2919.99 2296.64,2919.77C2296.64,2919.5 2296.87,2919.27 2297.14,2919.27L2307.54,2919.27Z" transform="matrix(1,0,0,1,-2296.64,-2914.8) matrix(0.75047,0,0,2.79249,2107,1785.1) matrix(1.3325,0,0,0.358103,-2807.57,-639.249)"/></svg>