<?xml version="1.0" standalone="no"?>
<!DOCTYPE svg PUBLIC "-//W3C//DTD SVG 20010904//EN"
 "http://www.w3.org/TR/2001/REC-SVG-20010904/DTD/svg10.dtd">
<svg version="1.0" xmlns="http://www.w3.org/2000/svg"
 width="700.000000pt" height="700.000000pt" viewBox="0 0 700.000000 700.000000"
 preserveAspectRatio="xMidYMid meet">
<metadata>
Created by potrace 1.14, written by Peter Selinger 2001-2017
</metadata>
<g transform="translate(0.000000,700.000000) scale(0.100000,-0.100000)"
fill="#000000" stroke="none">
<path d="M0 3500 l0 -3500 3500 0 3500 0 0 3500 0 3500 -3500 0 -3500 0 0
-3500z m5250 1420 l0 -490 -1260 0 -1260 0 0 -220 0 -220 1040 0 1040 0 0
-490 0 -490 -1530 0 -1530 0 0 1200 0 1200 1750 0 1750 0 0 -490z m-2520
-2840 l0 -490 -490 0 -490 0 0 490 0 490 490 0 490 0 0 -490z"/>
<path d="M2070 4210 l0 -880 1210 0 1210 0 0 170 0 170 -1040 0 -1040 0 0 540
0 540 1258 2 1257 3 3 168 2 167 -1430 0 -1430 0 0 -880z"/>
<path d="M2070 2080 l0 -170 170 0 170 0 0 170 0 170 -170 0 -170 0 0 -170z"/>
</g>
</svg>
