<?xml version="1.0" standalone="no"?>
<!DOCTYPE svg PUBLIC "-//W3C//DTD SVG 20010904//EN"
 "http://www.w3.org/TR/2001/REC-SVG-20010904/DTD/svg10.dtd">
<svg version="1.0" xmlns="http://www.w3.org/2000/svg"
 width="700.000000pt" height="700.000000pt" viewBox="0 0 700.000000 700.000000"
 preserveAspectRatio="xMidYMid meet">
<metadata>
Created by potrace 1.11, written by Peter Selinger 2001-2013
</metadata>
<g transform="translate(0.000000,700.000000) scale(0.100000,-0.100000)"
fill="#000000" stroke="none">
<path d="M479 5029 c-5 -3 -8 -608 -7 -1534 l3 -1529 412 -1 c267 0 414 4 416
10 1 6 2 313 2 683 -1 370 2 671 6 670 4 -2 49 -55 100 -118 51 -63 98 -120
104 -127 5 -7 15 -18 20 -25 6 -7 118 -146 250 -308 132 -162 245 -302 252
-310 6 -8 60 -73 118 -145 58 -71 116 -143 130 -160 13 -16 49 -61 80 -100
l57 -69 499 -1 c274 0 499 2 499 4 0 3 -185 234 -215 268 -5 6 -22 27 -36 45
-39 48 -697 859 -717 883 -10 11 -73 90 -142 175 -69 85 -127 157 -130 160 -3
3 -18 20 -33 38 l-27 34 132 156 c73 86 135 159 138 162 3 3 25 30 50 60 25
30 47 57 50 60 3 3 28 32 55 65 28 33 55 65 60 71 14 16 72 85 211 250 377
449 472 562 501 593 18 20 30 38 27 41 -3 2 -220 5 -482 5 l-477 0 -30 -30
c-16 -16 -46 -50 -65 -75 -19 -24 -47 -58 -62 -75 -15 -16 -57 -66 -94 -110
-63 -76 -115 -138 -194 -230 -19 -23 -53 -63 -75 -89 -22 -27 -44 -54 -50 -60
-5 -6 -32 -38 -59 -71 -27 -33 -54 -65 -60 -70 -6 -6 -31 -35 -56 -65 -54 -66
-49 -60 -201 -240 -67 -80 -125 -145 -128 -145 -3 0 -7 281 -7 625 -1 344 -2
627 -3 630 -1 7 -811 6 -822 -1z"/>
<path d="M4064 5025 c-2 -5 -3 -696 -1 -1535 l2 -1525 1230 0 1230 0 0 345 0
344 -807 0 c-658 0 -808 2 -809 13 0 7 0 119 0 248 0 129 0 240 0 245 1 7 268
10 781 10 l780 0 0 344 0 344 -777 1 c-427 1 -778 3 -780 5 -3 3 -6 260 -4
402 l1 80 808 0 807 0 3 342 c1 188 -1 343 -5 343 -5 1 -559 2 -1232 3 -808 1
-1225 -2 -1227 -9z"/>
</g>
</svg>
